<svg xmlns="http://www.w3.org/2000/svg">
  <symbol id="icon-sliders" viewBox="0 0 24 24" fill="none" stroke="currentColor" stroke-width="1.8" stroke-linecap="round" stroke-linejoin="round">
    <line x1="21" x2="14" y1="4" y2="4"></line>
    <line x1="10" x2="3" y1="4" y2="4"></line>
    <line x1="21" x2="12" y1="12" y2="12"></line>
    <line x1="8" x2="3" y1="12" y2="12"></line>
    <line x1="21" x2="16" y1="20" y2="20"></line>
    <line x1="12" x2="3" y1="20" y2="20"></line>
    <line x1="14" x2="14" y1="2" y2="6"></line>
    <line x1="8" x2="8" y1="10" y2="14"></line>
    <line x1="16" x2="16" y1="18" y2="22"></line>
  </symbol>
  <symbol id="icon-clock" viewBox="0 0 24 24" fill="none" stroke="currentColor" stroke-width="1.8" stroke-linecap="round" stroke-linejoin="round">
    <circle cx="12" cy="12" r="9"></circle>
    <path d="M12 7v5l3 2"></path>
  </symbol>
  <symbol id="icon-weather" viewBox="0 0 24 24" fill="none" stroke="currentColor" stroke-width="1.8" stroke-linecap="round" stroke-linejoin="round">
    <circle cx="8" cy="8" r="3"></circle>
    <path d="M8 2V1M8 15v-1M2 8H1M15 8h-1M3.8 3.8 3 3M12.2 3.8 13 3"></path>
    <path d="M8 19h9.5a3.5 3.5 0 0 0 .2-7A5 5 0 0 0 8.2 14 2.5 2.5 0 0 0 8 19Z"></path>
  </symbol>
  <symbol id="icon-lock" viewBox="0 0 24 24" fill="none" stroke="currentColor" stroke-width="1.8" stroke-linecap="round" stroke-linejoin="round">
    <rect x="5" y="10" width="14" height="11" rx="2"></rect>
    <path d="M8 10V7a4 4 0 0 1 8 0v3M12 14v3"></path>
  </symbol>
  <symbol id="icon-check" viewBox="0 0 24 24" fill="none" stroke="currentColor" stroke-width="1.8" stroke-linecap="round" stroke-linejoin="round">
    <circle cx="12" cy="12" r="9"></circle>
    <path d="m8 12 2.5 2.5L16 9"></path>
  </symbol>
  <symbol id="icon-arrow-right" viewBox="0 0 24 24" fill="none" stroke="currentColor" stroke-width="1.8" stroke-linecap="round" stroke-linejoin="round">
    <path d="M5 12h14M14 7l5 5-5 5"></path>
  </symbol>
  <symbol id="icon-arrow-left" viewBox="0 0 24 24" fill="none" stroke="currentColor" stroke-width="1.8" stroke-linecap="round" stroke-linejoin="round">
    <path d="M21 12H3M11 4l-8 8 8 8"></path>
  </symbol>
  <symbol id="icon-close" viewBox="0 0 24 24" fill="none" stroke="currentColor" stroke-width="1.8" stroke-linecap="round" stroke-linejoin="round">
    <path d="m6 6 12 12M18 6 6 18"></path>
  </symbol>
  <symbol id="icon-edit" viewBox="0 0 24 24" fill="none" stroke="currentColor" stroke-width="1.8" stroke-linecap="round" stroke-linejoin="round">
    <path d="M12 20h9"></path>
    <path d="M16.5 3.5a2.1 2.1 0 0 1 3 3L8 18l-4 1 1-4Z"></path>
  </symbol>
  <symbol id="icon-mission" viewBox="0 0 24 24" fill="none" stroke="currentColor" stroke-width="1.6" stroke-linecap="round" stroke-linejoin="round">
    <path d="M12 2v20M2 12h20M5 5l14 14M19 5 5 19"></path>
    <circle cx="12" cy="12" r="2.5"></circle>
  </symbol>
  <symbol id="icon-signal" viewBox="0 0 24 24" fill="none" stroke="currentColor" stroke-width="1.6" stroke-linecap="round" stroke-linejoin="round">
    <circle cx="12" cy="4" r="1" fill="currentColor" stroke="none"></circle>
    <path d="M12 5v4.5M5.7 4.8a8.8 8.8 0 0 0 0 10.4M18.3 4.8a8.8 8.8 0 0 1 0 10.4M8.3 7.2a5.3 5.3 0 0 0 0 5.6M15.7 7.2a5.3 5.3 0 0 1 0 5.6"></path>
    <path d="m12 9.5-3.6 11h7.2L12 9.5Z"></path>
    <path d="M9.8 16.2h4.4M9.1 18.5h5.8"></path>
    <circle cx="12" cy="13.3" r=".8" fill="currentColor" stroke="none"></circle>
  </symbol>
</svg>
