<svg xmlns="http://www.w3.org/2000/svg">
  <symbol id="icon-bell" viewBox="0 0 24 24" fill="none" stroke="currentColor" stroke-width="1.8" stroke-linecap="round" stroke-linejoin="round">
    <path d="M18 8a6 6 0 0 0-12 0c0 7-3 7-3 9h18c0-2-3-2-3-9"></path>
    <path d="M10 21h4"></path>
  </symbol>
  <symbol id="icon-settings" viewBox="0 0 24 24" fill="none" stroke="currentColor" stroke-width="1.8" stroke-linecap="round" stroke-linejoin="round">
    <circle cx="12" cy="12" r="3"></circle>
    <path d="M19 15a2 2 0 0 0 .4 2l-2.4 2.4a2 2 0 0 0-2-.4 2 2 0 0 0-1.4 1.6h-3.2A2 2 0 0 0 9 19a2 2 0 0 0-2 .4L4.6 17a2 2 0 0 0 .4-2 2 2 0 0 0-1.6-1.4v-3.2A2 2 0 0 0 5 9a2 2 0 0 0-.4-2L7 4.6A2 2 0 0 0 9 5a2 2 0 0 0 1.4-1.6h3.2A2 2 0 0 0 15 5a2 2 0 0 0 2-.4L19.4 7A2 2 0 0 0 19 9a2 2 0 0 0 1.6 1.4v3.2A2 2 0 0 0 19 15"></path>
  </symbol>
  <symbol id="icon-clock" viewBox="0 0 24 24" fill="none" stroke="currentColor" stroke-width="1.8" stroke-linecap="round" stroke-linejoin="round">
    <circle cx="12" cy="12" r="9"></circle>
    <path d="M12 7v5l3 2"></path>
  </symbol>
  <symbol id="icon-weather" viewBox="0 0 24 24" fill="none" stroke="currentColor" stroke-width="1.8" stroke-linecap="round" stroke-linejoin="round">
    <circle cx="8" cy="8" r="3"></circle>
    <path d="M8 2V1M8 15v-1M2 8H1M15 8h-1M3.8 3.8 3 3M12.2 3.8 13 3"></path>
    <path d="M8 19h9.5a3.5 3.5 0 0 0 .2-7A5 5 0 0 0 8.2 14 2.5 2.5 0 0 0 8 19Z"></path>
  </symbol>
  <symbol id="icon-lock" viewBox="0 0 24 24" fill="none" stroke="currentColor" stroke-width="1.8" stroke-linecap="round" stroke-linejoin="round">
    <rect x="5" y="10" width="14" height="11" rx="2"></rect>
    <path d="M8 10V7a4 4 0 0 1 8 0v3M12 14v3"></path>
  </symbol>
  <symbol id="icon-check" viewBox="0 0 24 24" fill="none" stroke="currentColor" stroke-width="1.8" stroke-linecap="round" stroke-linejoin="round">
    <circle cx="12" cy="12" r="9"></circle>
    <path d="m8 12 2.5 2.5L16 9"></path>
  </symbol>
  <symbol id="icon-arrow-right" viewBox="0 0 24 24" fill="none" stroke="currentColor" stroke-width="1.8" stroke-linecap="round" stroke-linejoin="round">
    <path d="M5 12h14M14 7l5 5-5 5"></path>
  </symbol>
  <symbol id="icon-close" viewBox="0 0 24 24" fill="none" stroke="currentColor" stroke-width="1.8" stroke-linecap="round" stroke-linejoin="round">
    <path d="m6 6 12 12M18 6 6 18"></path>
  </symbol>
</svg>
