<svg xmlns="http://www.w3.org/2000/svg">
  <symbol id="icon-settings" viewBox="0 0 24 24" fill="none" stroke="currentColor" stroke-width="1.8" stroke-linecap="round" stroke-linejoin="round">
    <circle cx="12" cy="12" r="3"></circle>
    <path d="M19.4 15a1.65 1.65 0 0 0 .33 1.82l.06.06a2 2 0 1 1-2.83 2.83l-.06-.06a1.65 1.65 0 0 0-1.82-.33 1.65 1.65 0 0 0-1 1.51V21a2 2 0 1 1-4 0v-.09A1.65 1.65 0 0 0 9 19.4a1.65 1.65 0 0 0-1.82.33l-.06.06a2 2 0 1 1-2.83-2.83l.06-.06a1.65 1.65 0 0 0 .33-1.82 1.65 1.65 0 0 0-1.51-1H3a2 2 0 1 1 0-4h.09A1.65 1.65 0 0 0 4.6 9a1.65 1.65 0 0 0-.33-1.82l-.06-.06a2 2 0 1 1 2.83-2.83l.06.06A1.65 1.65 0 0 0 9 4.6h.08A1.65 1.65 0 0 0 10 3.09V3a2 2 0 1 1 4 0v.09A1.65 1.65 0 0 0 15 4.6a1.65 1.65 0 0 0 1.82-.33l.06-.06a2 2 0 1 1 2.83 2.83l-.06.06a1.65 1.65 0 0 0-.33 1.82V9a1.65 1.65 0 0 0 1.51 1H21a2 2 0 1 1 0 4h-.09A1.65 1.65 0 0 0 19.4 15Z"></path>
  </symbol>
  <symbol id="icon-clock" viewBox="0 0 24 24" fill="none" stroke="currentColor" stroke-width="1.8" stroke-linecap="round" stroke-linejoin="round">
    <circle cx="12" cy="12" r="9"></circle>
    <path d="M12 7v5l3 2"></path>
  </symbol>
  <symbol id="icon-weather" viewBox="0 0 24 24" fill="none" stroke="currentColor" stroke-width="1.8" stroke-linecap="round" stroke-linejoin="round">
    <circle cx="8" cy="8" r="3"></circle>
    <path d="M8 2V1M8 15v-1M2 8H1M15 8h-1M3.8 3.8 3 3M12.2 3.8 13 3"></path>
    <path d="M8 19h9.5a3.5 3.5 0 0 0 .2-7A5 5 0 0 0 8.2 14 2.5 2.5 0 0 0 8 19Z"></path>
  </symbol>
  <symbol id="icon-lock" viewBox="0 0 24 24" fill="none" stroke="currentColor" stroke-width="1.8" stroke-linecap="round" stroke-linejoin="round">
    <rect x="5" y="10" width="14" height="11" rx="2"></rect>
    <path d="M8 10V7a4 4 0 0 1 8 0v3M12 14v3"></path>
  </symbol>
  <symbol id="icon-check" viewBox="0 0 24 24" fill="none" stroke="currentColor" stroke-width="1.8" stroke-linecap="round" stroke-linejoin="round">
    <circle cx="12" cy="12" r="9"></circle>
    <path d="m8 12 2.5 2.5L16 9"></path>
  </symbol>
  <symbol id="icon-arrow-right" viewBox="0 0 24 24" fill="none" stroke="currentColor" stroke-width="1.8" stroke-linecap="round" stroke-linejoin="round">
    <path d="M5 12h14M14 7l5 5-5 5"></path>
  </symbol>
  <symbol id="icon-arrow-left" viewBox="0 0 24 24" fill="none" stroke="currentColor" stroke-width="1.8" stroke-linecap="round" stroke-linejoin="round">
    <path d="M21 12H3M11 4l-8 8 8 8"></path>
  </symbol>
  <symbol id="icon-close" viewBox="0 0 24 24" fill="none" stroke="currentColor" stroke-width="1.8" stroke-linecap="round" stroke-linejoin="round">
    <path d="m6 6 12 12M18 6 6 18"></path>
  </symbol>
  <symbol id="icon-edit" viewBox="0 0 24 24" fill="none" stroke="currentColor" stroke-width="1.8" stroke-linecap="round" stroke-linejoin="round">
    <path d="M12 20h9"></path>
    <path d="M16.5 3.5a2.1 2.1 0 0 1 3 3L8 18l-4 1 1-4Z"></path>
  </symbol>
  <symbol id="icon-mission" viewBox="0 0 24 24" fill="none" stroke="currentColor" stroke-width="1.6" stroke-linecap="round" stroke-linejoin="round">
    <path d="M12 2v20M2 12h20M5 5l14 14M19 5 5 19"></path>
    <circle cx="12" cy="12" r="2.5"></circle>
  </symbol>
  <symbol id="icon-signal" viewBox="0 0 24 24" fill="none" stroke="currentColor" stroke-width="1.6" stroke-linecap="round" stroke-linejoin="round">
    <circle cx="12" cy="4" r="1" fill="currentColor" stroke="none"></circle>
    <path d="M12 5v4.5M5.7 4.8a8.8 8.8 0 0 0 0 10.4M18.3 4.8a8.8 8.8 0 0 1 0 10.4M8.3 7.2a5.3 5.3 0 0 0 0 5.6M15.7 7.2a5.3 5.3 0 0 1 0 5.6"></path>
    <path d="m12 9.5-3.6 11h7.2L12 9.5Z"></path>
    <path d="M9.8 16.2h4.4M9.1 18.5h5.8"></path>
    <circle cx="12" cy="13.3" r=".8" fill="currentColor" stroke="none"></circle>
  </symbol>
</svg>
