<svg viewBox="0 0 270 88" fill="none" xmlns="http://www.w3.org/2000/svg">
  <g transform="translate(2 2)">
    <circle cx="42" cy="42" r="34" stroke="#C89A55" stroke-width="1.4" opacity=".72"/>
    <circle cx="42" cy="42" r="27" stroke="#E7C98F" stroke-width=".8" opacity=".5"/>
    <path d="M42 3 48 35 81 42 48 49 42 81 35 49 3 42 35 35 42 3Z" fill="url(#logo-star)" stroke="#F5E8CE" stroke-width="1.2" stroke-linejoin="round"/>
    <path d="m42 16 3 22 23 4-23 4-3 22-4-22-22-4 22-4 4-22Z" fill="#071522" stroke="#58CBF4" stroke-width=".9"/>
    <circle cx="42" cy="42" r="4.5" fill="#F5E8CE"/>
    <path d="M42 0v10M42 74v10M0 42h10M74 42h10" stroke="#DDBB7A" stroke-width="1.4"/>
  </g>
  <path d="M94 9v70" stroke="#D0A866" stroke-width=".8" opacity=".34"/>
  <text x="116" y="36" fill="#F4E6CC" font-family="Georgia, 'Times New Roman', serif" font-size="23" font-weight="600" letter-spacing="10">NOVA</text>
  <text x="116" y="70" fill="#F4E6CC" font-family="Georgia, 'Times New Roman', serif" font-size="23" font-weight="600" letter-spacing="10">LAND</text>
  <defs>
    <linearGradient id="logo-star" x1="42" y1="3" x2="42" y2="81" gradientUnits="userSpaceOnUse">
      <stop stop-color="#F7E9CD"/>
      <stop offset=".48" stop-color="#54CFF4"/>
      <stop offset="1" stop-color="#C99851"/>
    </linearGradient>
  </defs>
</svg>
