<svg viewBox="0 0 310 96" fill="none" xmlns="http://www.w3.org/2000/svg">
  <g filter="url(#logo-glow)">
    <circle cx="48" cy="48" r="39.5" stroke="#C7954D" stroke-width="1.4"/>
    <circle cx="48" cy="48" r="32" stroke="#F1D59A" stroke-width=".8" opacity=".58"/>
    <circle cx="48" cy="48" r="23.5" stroke="#55C9EE" stroke-width=".7" opacity=".42"/>
    <path d="M48 3 54.4 39.3 93 48l-38.6 8.7L48 93l-6.7-36.3L3 48l38.3-8.7L48 3Z" fill="url(#compass-main)" stroke="#F5E4C2" stroke-width="1.3" stroke-linejoin="round"/>
    <path d="m17 17 25.7 25.7M79 17 53.3 42.7M17 79l25.7-25.7M79 79 53.3 53.3" stroke="#C7944C" stroke-width="1.1" opacity=".8"/>
    <path d="m48 18 3.3 26.7L78 48l-26.7 3.3L48 78l-3.3-26.7L18 48l26.7-3.3L48 18Z" fill="#071522" stroke="#58D1F3" stroke-width="1"/>
    <circle cx="48" cy="48" r="5.2" fill="#F4E3C0" stroke="#C58D42" stroke-width="1"/>
    <circle cx="48" cy="48" r="1.8" fill="#0A2132"/>
    <path d="M48 0v9M48 87v9M0 48h9M87 48h9" stroke="#E2BB76" stroke-width="1.5"/>
    <path d="m11 27 6 3M79 66l6 3M27 11l3 6M66 79l3 6M11 69l6-3M79 30l6-3M27 85l3-6M66 17l3-6" stroke="#C59249" stroke-width="1"/>
  </g>
  <path d="M106 10v76" stroke="url(#divider)" stroke-width="1"/>
  <g transform="translate(126 15)" stroke="url(#wordmark)" stroke-width="2.4" stroke-linecap="square" stroke-linejoin="miter">
    <path d="M2 27V1M2 1l22 26M24 27V1M-1 1h6M21 1h6M-1 27h6M21 27h6"/>
    <ellipse cx="50" cy="14" rx="12" ry="14"/>
    <path d="M75 1 87 28 99 1M72 1h7M95 1h7M84 28h6"/>
    <path d="m112 28 12-27 12 27M117 17h14M109 28h7M132 28h7"/>
  </g>
  <g transform="translate(126 55)" stroke="url(#wordmark)" stroke-width="2.4" stroke-linecap="square" stroke-linejoin="miter">
    <path d="M2 1v27h23M-1 1h7M-1 28h7M21 25v6"/>
    <path d="m39 28 12-27 12 27M44 17h14M36 28h7M59 28h7"/>
    <path d="M77 28V1M77 1l22 27M99 28V1M74 1h6M96 1h6M74 28h6M96 28h6"/>
    <path d="M115 1v27h9c9 0 14-5 14-13.5S133 1 124 1h-9ZM112 1h7M112 28h7"/>
  </g>
  <defs>
    <linearGradient id="compass-main" x1="48" y1="3" x2="48" y2="93" gradientUnits="userSpaceOnUse">
      <stop stop-color="#F7E7C5"/>
      <stop offset=".43" stop-color="#56C9ED"/>
      <stop offset=".56" stop-color="#12384A"/>
      <stop offset="1" stop-color="#B87932"/>
    </linearGradient>
    <linearGradient id="divider" x1="106" y1="10" x2="106" y2="86" gradientUnits="userSpaceOnUse">
      <stop stop-color="#A8712F" stop-opacity="0"/>
      <stop offset=".5" stop-color="#E0B870" stop-opacity=".65"/>
      <stop offset="1" stop-color="#A8712F" stop-opacity="0"/>
    </linearGradient>
    <linearGradient id="wordmark" x1="126" y1="15" x2="264" y2="84" gradientUnits="userSpaceOnUse">
      <stop stop-color="#FFF5DE"/>
      <stop offset=".55" stop-color="#EFD6A8"/>
      <stop offset="1" stop-color="#C59249"/>
    </linearGradient>
    <filter id="logo-glow" x="-12" y="-12" width="120" height="120" filterUnits="userSpaceOnUse">
      <feGaussianBlur stdDeviation=".45" result="blur"/>
      <feMerge><feMergeNode in="blur"/><feMergeNode in="SourceGraphic"/></feMerge>
    </filter>
  </defs>
</svg>
