<svg viewBox="0 0 96 96" fill="none" xmlns="http://www.w3.org/2000/svg">
  <circle cx="48" cy="48" r="40" stroke="#D9BC85" stroke-width="1.5" opacity=".7"/>
  <circle cx="48" cy="48" r="31" stroke="#55CFFF" stroke-width="1" opacity=".38"/>
  <path d="M48 5L54 39L91 48L54 55L48 91L41 55L5 48L41 39L48 5Z" fill="url(#nova-star)" stroke="#F2E3C3" stroke-width="1.5" stroke-linejoin="round"/>
  <path d="M48 19L51 42L77 48L51 52L48 77L44 52L19 48L44 42L48 19Z" fill="#07182A" stroke="#5AD9FF" stroke-width="1" opacity=".92"/>
  <circle cx="48" cy="48" r="5" fill="#F2E3C3"/>
  <path d="M48 0V12M48 84V96M0 48H12M84 48H96" stroke="#D9BC85" stroke-width="1.5"/>
  <defs>
    <linearGradient id="nova-star" x1="48" y1="5" x2="48" y2="91" gradientUnits="userSpaceOnUse">
      <stop stop-color="#F5E6C9"/>
      <stop offset=".48" stop-color="#53CFFF"/>
      <stop offset="1" stop-color="#C99A54"/>
    </linearGradient>
  </defs>
</svg>
